<?xml version="1.0" standalone="no"?>
<!DOCTYPE svg PUBLIC "-//W3C//DTD SVG 20010904//EN"
 "http://www.w3.org/TR/2001/REC-SVG-20010904/DTD/svg10.dtd">
<svg version="1.0" xmlns="http://www.w3.org/2000/svg"
 width="512.000000pt" height="512.000000pt" viewBox="0 0 512.000000 512.000000"
 preserveAspectRatio="xMidYMid meet">
<metadata>
Created by potrace 1.11, written by Peter Selinger 2001-2013
</metadata>
<g transform="translate(0.000000,512.000000) scale(0.100000,-0.100000)"
fill="#000000" stroke="none">
<path d="M491 4018 c-12 -4 -21 -13 -22 -20 -1 -7 -1 -155 -1 -328 l0 -315 50
-133 c28 -74 58 -142 68 -153 15 -17 31 -19 138 -19 67 0 127 4 135 9 8 5 33
67 56 138 38 117 44 128 66 128 22 0 28 -11 67 -131 35 -109 46 -133 65 -138
36 -10 237 -7 256 4 16 8 31 40 92 195 15 36 16 40 28 88 11 45 10 662 -2 673
-13 13 -277 12 -295 -2 -14 -10 -16 -44 -15 -274 l1 -263 -44 89 c-24 49 -53
97 -65 107 -27 22 -135 24 -165 3 -11 -8 -38 -53 -60 -100 -21 -47 -41 -86
-44 -86 -3 0 -5 113 -5 251 0 175 -3 256 -11 267 -10 13 -36 16 -142 17 -72 0
-140 -3 -151 -7z"/>
<path d="M1718 4021 c-7 -2 -16 -9 -20 -15 -4 -6 -8 -218 -8 -471 0 -346 3
-464 12 -473 9 -9 106 -12 374 -12 320 0 364 2 379 16 12 13 15 36 14 113 -1
53 -5 104 -10 114 -9 15 -30 17 -223 17 -234 0 -222 -4 -221 65 l0 40 154 3
c93 1 160 7 168 13 9 8 13 40 13 109 0 69 -4 101 -13 109 -8 6 -75 12 -168 13
l-154 3 0 50 0 50 212 0 c160 0 215 3 225 13 19 19 22 203 4 228 -14 18 -31
19 -370 19 -195 0 -361 -2 -368 -4z"/>
<path d="M2658 4021 c-7 -2 -16 -9 -20 -15 -4 -6 -8 -219 -8 -472 0 -383 2
-464 14 -473 10 -8 109 -11 352 -11 305 1 343 3 388 20 65 25 111 71 125 126
14 53 14 237 1 284 -18 63 -86 120 -142 120 l-22 0 22 20 c42 40 55 80 54 166
-1 144 -49 208 -172 230 -46 8 -568 13 -592 5z m464 -239 c5 -5 10 -31 11 -57
2 -64 -16 -77 -108 -73 l-70 3 0 60 c-1 33 1 65 2 71 4 12 152 9 165 -4z m60
-356 c8 -8 15 -36 17 -64 3 -76 -9 -83 -137 -80 l-106 3 -1 65 c0 36 1 71 3
78 6 18 206 17 224 -2z"/>
<path d="M3718 4021 c-7 -2 -16 -9 -20 -15 -4 -6 -8 -219 -8 -472 0 -384 2
-464 14 -473 10 -9 108 -11 353 -11 331 2 341 2 397 25 58 24 73 36 104 90 14
25 17 56 17 175 0 128 -2 148 -20 175 -36 54 -48 64 -92 77 -24 7 -43 15 -43
18 0 4 11 17 25 30 29 28 39 71 37 164 -2 123 -57 190 -172 212 -38 7 -570 12
-592 5z m450 -235 c22 -7 26 -22 23 -80 -3 -50 -16 -57 -99 -54 l-75 3 -2 55
c-3 80 3 87 72 85 32 -1 68 -5 81 -9z m76 -362 c22 -21 21 -107 0 -129 -13
-13 -35 -15 -122 -13 l-106 3 1 65 c0 36 1 71 2 78 2 20 205 17 225 -4z"/>
<path d="M379 2796 c-1 -29 -1 -1407 0 -1428 1 -9 11 -20 24 -23 52 -15 788
-252 872 -280 22 -8 155 -51 295 -95 140 -45 336 -108 435 -140 99 -32 326
-106 505 -164 179 -57 453 -146 610 -197 157 -50 292 -92 300 -93 13 -1 14 83
15 647 l0 647 -472 0 c-443 0 -473 -1 -474 -17 0 -10 0 -55 0 -100 1 -46 -2
-83 -7 -83 -5 0 -43 13 -83 29 -41 16 -105 41 -144 56 -38 15 -97 37 -130 50
-33 13 -206 80 -385 149 l-325 125 1660 1 1660 0 -2 457 c-1 252 -2 463 -2
469 -1 8 -591 11 -2176 11 l-2175 0 -1 -21z"/>
</g>
</svg>
